<svg version="1.1" id="Layer_1" xmlns="http://www.w3.org/2000/svg" xmlns:xlink="http://www.w3.org/1999/xlink" x="0px" y="0px"
	 width="100%" viewBox="0 0 1024 1024" enable-background="new 0 0 1024 1024" xml:space="preserve">
<!-- Isotipo - estructura principal (grafito) -->
<path fill="#2F3542" opacity="1.000000" stroke="none" 
	d="
M299.005951,429.692627 
	C305.638184,430.843903 311.732941,432.231232 317.909790,436.287384 
	C313.856903,440.024841 310.315704,443.397949 306.641052,446.618835 
	C305.412018,447.696045 303.800293,447.300262 302.341705,446.804565 
	C297.527924,445.168549 292.542053,445.139343 287.539368,445.144928 
	C269.226471,445.165344 250.913589,445.142395 232.600693,445.150848 
	C225.357758,445.154175 225.344528,445.172150 225.341110,452.646027 
	C225.332993,470.459473 225.268005,488.273468 225.400711,506.085938 
	C225.426041,509.485352 224.678940,512.196106 222.124054,514.526489 
	C217.182800,519.033447 214.516632,525.262146 210.784164,530.697693 
	C208.245239,529.335815 208.931168,527.290466 208.927612,525.623657 
	C208.862457,495.157806 208.911285,464.691589 208.779068,434.226135 
	C208.761429,430.161194 210.060196,428.672211 214.233444,428.694794 
	C239.704239,428.832794 265.176239,428.732941 290.647644,428.796387 
	C293.287872,428.802979 295.926697,429.361511 299.005951,429.692627 
z"/>
<!-- Isotipo - curva/flecha (verde propio) -->
<path fill="#20B29C" opacity="1.000000" stroke="none" 
	d="
M228.791138,517.822632 
	C241.659592,503.128021 257.603394,494.367157 276.184967,490.271210 
	C297.519745,485.568390 313.170349,472.743988 325.987976,455.795990 
	C326.669098,454.895355 327.098236,453.804199 327.727966,452.648987 
	C324.579285,449.519226 319.599518,450.728912 315.663177,446.975952 
	C327.691315,441.438934 339.030670,436.218933 351.326721,430.558563 
	C351.326721,444.737885 351.326721,457.698486 351.326721,471.176178 
	C346.716980,469.359924 345.607910,464.605988 341.613220,462.436493 
	C337.682251,467.072113 333.829895,471.788208 329.794525,476.342163 
	C316.113770,491.781097 299.186676,501.928284 279.035370,506.225616 
	C247.372711,512.977783 225.485565,539.394226 225.225906,571.756653 
	C225.193817,575.754883 225.116257,579.756226 225.235611,583.750916 
	C225.327042,586.810547 224.334915,588.364746 220.975540,588.318298 
	C206.364349,588.116516 209.109787,589.913757 208.728806,576.741089 
	C208.092041,554.724060 214.140991,535.002258 228.791138,517.822632 
z"/>
<!-- Isotipo - detalle curva (verde propio) -->
<path fill="#20B29C" opacity="1.000000" stroke="none" 
	d="
M251.731430,561.940796 
	C251.743500,552.285522 252.007294,543.109985 251.663681,533.957275 
	C251.482956,529.144043 253.388077,527.897278 257.777344,528.046936 
	C267.931244,528.393066 278.094910,528.504822 288.255646,528.591125 
	C313.574341,528.806152 329.748505,511.576477 329.698029,488.967560 
	C329.695862,487.991913 329.616882,486.711517 330.162354,486.088684 
	C333.947968,481.766327 337.889496,477.580566 341.945892,473.171814 
	C345.750763,476.603607 345.781982,480.987640 346.102386,484.916351 
	C348.757629,517.473083 324.193787,544.077820 291.444336,544.341492 
	C285.445129,544.389771 279.438293,544.536194 273.448120,544.301758 
	C269.566895,544.149841 268.168823,545.428894 268.252106,549.441467 
	C268.483795,560.602478 268.182129,571.774475 268.401855,582.936035 
	C268.484619,587.142090 266.915405,588.499756 262.868530,588.340454 
	C256.878296,588.104675 250.866119,588.127747 244.874207,588.343384 
	C241.100266,588.479309 239.720383,586.840698 239.938019,583.310059 
	C240.009644,582.148010 239.922668,580.977051 239.949219,579.811096 
	C240.087982,573.714050 238.515762,571.255554 247.406067,571.841125 
	C250.664276,572.055786 251.991638,570.637512 251.734619,567.427795 
	C251.602051,565.772400 251.723984,564.096619 251.731430,561.940796 
z"/>
<!-- Wordmark (grafito) -->
<path fill="#2F3542" opacity="1.000000" stroke="none" 
	d="
M539.757141,508.855164 
	C535.427734,486.691193 549.018433,466.218597 570.053772,462.691315 
	C594.653503,458.566345 615.037537,472.365875 618.157593,495.256592 
	C621.047546,516.460083 604.949768,536.184021 583.077271,538.239014 
	C562.249634,540.195740 545.901550,529.246033 539.757141,508.855164 
M597.029053,517.511169 
	C604.980835,507.791840 605.899841,495.431396 599.404968,485.555664 
	C593.571838,476.686157 581.431519,472.643555 570.624695,475.972229 
	C560.652466,479.043823 554.461609,487.527832 553.536011,499.390686 
	C552.827637,508.468536 558.741638,518.677734 567.070679,522.755310 
	C577.281250,527.754028 587.865295,526.049316 597.029053,517.511169 
z"/>
<path fill="#2F3542" opacity="1.000000" stroke="none" 
	d="
M753.337402,473.336334 
	C769.281860,459.755219 788.758057,457.958893 804.744202,468.365784 
	C818.631042,477.406097 824.875977,493.965698 820.528259,510.220886 
	C816.356506,525.818115 802.202148,537.378296 786.054077,538.267151 
	C770.334473,539.132446 757.066345,534.386353 748.270142,520.636902 
	C738.828491,505.878265 740.832947,487.828491 753.337402,473.336334 
M758.835388,490.524353 
	C758.436584,491.964050 757.881653,493.380554 757.664062,494.847137 
	C756.142212,505.106293 758.334717,514.244629 767.112366,520.498535 
	C775.815674,526.699463 785.337402,527.392883 794.830811,522.158264 
	C804.174927,517.005981 808.684631,506.126251 806.598877,494.700745 
	C804.805359,484.876312 796.036377,476.437897 786.339172,475.204834 
	C773.677002,473.594757 764.889465,478.311401 758.835388,490.524353 
z"/>
<path fill="#2F3542" opacity="1.000000" stroke="none" 
	d="
M521.263306,472.852905 
	C529.705811,483.916199 527.802734,503.141907 514.604919,510.269775 
	C511.876801,511.743195 512.255005,513.373169 513.727600,515.484619 
	C517.439331,520.806274 521.106201,526.160522 524.703308,531.560120 
	C525.673035,533.015625 527.300232,534.220398 526.994873,536.719360 
	C522.515381,537.746582 517.922729,537.280518 513.371155,537.047119 
	C511.516083,536.952026 510.738708,535.157654 509.841553,533.782166 
	C506.660675,528.905396 503.384979,524.081970 500.422333,519.074402 
	C498.708130,516.177002 496.607239,514.842102 493.181091,514.923584 
	C476.422363,515.322266 479.640381,512.704529 479.355988,528.411255 
	C479.200928,536.975098 475.953857,539.362915 467.320007,537.080322 
	C463.960724,536.192200 464.801849,533.554260 464.793365,531.412109 
	C464.717010,512.110474 464.666077,492.808258 464.742432,473.506714 
	C464.789551,461.593170 463.149628,462.719574 475.302643,462.812927 
	C484.930756,462.886902 494.600403,461.944580 504.183167,463.683777 
	C510.739227,464.873657 516.585449,467.392334 521.263306,472.852905 
M479.307007,486.548187 
	C479.317230,490.708435 479.325592,494.868713 479.338562,499.028961 
	C479.344055,500.787689 479.527496,502.627014 481.799011,502.620819 
	C488.754944,502.601837 495.801117,503.748901 502.626648,501.637848 
	C509.085022,499.640320 511.966187,495.353149 511.828125,488.503815 
	C511.695526,481.926697 508.716064,478.212891 502.251831,476.199524 
	C497.998749,474.874847 493.669128,475.338776 489.367645,475.343475 
	C478.015900,475.355927 479.405640,474.237244 479.307007,486.548187 
z"/>
<path fill="#2F3542" opacity="1.000000" stroke="none" 
	d="
M407.262909,515.958496 
	C403.313721,515.699402 402.096222,517.412476 402.229614,520.765869 
	C402.394806,524.917542 402.210999,529.081970 402.257446,533.239929 
	C402.287842,535.959717 400.995026,536.971436 398.331024,537.195496 
	C387.968994,538.067078 387.693024,537.876709 387.692505,527.512634 
	C387.691467,507.883698 387.822937,488.253082 387.585754,468.626984 
	C387.528625,463.898499 389.199249,462.537903 393.658142,462.749237 
	C404.770599,463.275909 415.948151,461.886078 427.019714,463.753662 
	C440.249817,465.985382 448.415344,475.299469 449.101379,488.823792 
	C449.702545,500.675720 442.174652,510.726440 430.031708,514.293091 
	C425.352417,515.667542 420.507782,515.664551 415.707733,515.954712 
	C413.056671,516.114990 410.386658,515.961792 407.262909,515.958496 
M407.757446,475.345886 
	C403.817139,474.849243 401.955658,476.202087 402.179688,480.548035 
	C402.496582,486.694458 402.353119,492.868561 402.279724,499.029358 
	C402.247070,501.771606 403.403503,503.029053 406.124390,502.983551 
	C411.616516,502.891663 417.134888,503.145233 422.595337,502.690796 
	C429.251831,502.136749 434.198639,496.620941 434.606964,490.047760 
	C435.016327,483.458160 431.184509,478.301147 424.572845,476.312469 
	C419.336029,474.737274 413.987366,475.579071 407.757446,475.345886 
z"/>
<path fill="#2F3542" opacity="1.000000" stroke="none" 
	d="
M634.796509,521.994629 
	C634.798218,504.013367 634.925903,486.529755 634.720215,469.050079 
	C634.664917,464.349121 636.064697,462.466095 640.957825,462.719147 
	C652.075439,463.294098 663.279236,461.718140 674.341309,463.743317 
	C694.429504,467.420868 703.208984,489.727356 690.784241,505.613007 
	C685.759338,512.037659 678.678894,514.839294 670.727356,515.278259 
	C665.082214,515.589966 659.407227,515.496704 653.749268,515.389099 
	C650.528137,515.327881 649.234558,516.648804 649.321777,519.838196 
	C649.440063,524.163391 649.191101,528.500000 649.352539,532.822205 
	C649.474243,536.082397 648.089661,537.115601 644.946045,537.252319 
	C634.806580,537.693359 634.810852,537.794006 634.799194,527.488647 
	C634.797302,525.823669 634.797852,524.158752 634.796509,521.994629 
M680.854614,483.950684 
	C679.047302,479.313324 675.461304,477.043030 670.742493,476.035004 
	C664.631775,474.729553 658.475891,475.541321 652.342896,475.368378 
	C649.447327,475.286682 649.330811,477.357086 649.333496,479.477753 
	C649.341492,485.800446 649.480042,492.127686 649.280334,498.444061 
	C649.166321,502.048004 650.777832,503.116638 654.064209,503.011230 
	C658.219482,502.877991 662.384460,503.067413 666.541687,502.968140 
	C678.249451,502.688629 683.281067,496.357544 680.854614,483.950684 
z"/>
<path fill="#2F3542" opacity="1.000000" stroke="none" 
	d="
M725.950745,492.000000 
	C725.970276,505.331390 725.819397,518.166504 726.097839,530.992188 
	C726.200562,535.725037 724.807312,537.517029 719.885681,537.330872 
	C711.677979,537.020386 711.651001,537.285767 711.647644,529.152405 
	C711.639221,508.988617 711.777649,488.823364 711.553284,468.662079 
	C711.500793,463.946472 713.161743,462.613312 717.632385,462.735260 
	C725.522766,462.950439 725.853821,462.899170 725.920898,468.503601 
	C726.012634,476.168091 725.948181,483.834442 725.950745,492.000000 
z"/>
</svg>
