<svg version="1.1" xmlns="http://www.w3.org/2000/svg" xmlns:xlink="http://www.w3.org/1999/xlink" x="0px" y="0px"
	 width="100%" viewBox="190 410 180 200" xml:space="preserve">
<!-- Isotipo - estructura principal (grafito) -->
<path fill="#2F3542" opacity="1.000000" stroke="none" 
	d="
M299.005951,429.692627 
	C305.638184,430.843903 311.732941,432.231232 317.909790,436.287384 
	C313.856903,440.024841 310.315704,443.397949 306.641052,446.618835 
	C305.412018,447.696045 303.800293,447.300262 302.341705,446.804565 
	C297.527924,445.168549 292.542053,445.139343 287.539368,445.144928 
	C269.226471,445.165344 250.913589,445.142395 232.600693,445.150848 
	C225.357758,445.154175 225.344528,445.172150 225.341110,452.646027 
	C225.332993,470.459473 225.268005,488.273468 225.400711,506.085938 
	C225.426041,509.485352 224.678940,512.196106 222.124054,514.526489 
	C217.182800,519.033447 214.516632,525.262146 210.784164,530.697693 
	C208.245239,529.335815 208.931168,527.290466 208.927612,525.623657 
	C208.862457,495.157806 208.911285,464.691589 208.779068,434.226135 
	C208.761429,430.161194 210.060196,428.672211 214.233444,428.694794 
	C239.704239,428.832794 265.176239,428.732941 290.647644,428.796387 
	C293.287872,428.802979 295.926697,429.361511 299.005951,429.692627 
z"/>
<!-- Isotipo - curva/flecha (verde propio) -->
<path fill="#20B29C" opacity="1.000000" stroke="none" 
	d="
M228.791138,517.822632 
	C241.659592,503.128021 257.603394,494.367157 276.184967,490.271210 
	C297.519745,485.568390 313.170349,472.743988 325.987976,455.795990 
	C326.669098,454.895355 327.098236,453.804199 327.727966,452.648987 
	C324.579285,449.519226 319.599518,450.728912 315.663177,446.975952 
	C327.691315,441.438934 339.030670,436.218933 351.326721,430.558563 
	C351.326721,444.737885 351.326721,457.698486 351.326721,471.176178 
	C346.716980,469.359924 345.607910,464.605988 341.613220,462.436493 
	C337.682251,467.072113 333.829895,471.788208 329.794525,476.342163 
	C316.113770,491.781097 299.186676,501.928284 279.035370,506.225616 
	C247.372711,512.977783 225.485565,539.394226 225.225906,571.756653 
	C225.193817,575.754883 225.116257,579.756226 225.235611,583.750916 
	C225.327042,586.810547 224.334915,588.364746 220.975540,588.318298 
	C206.364349,588.116516 209.109787,589.913757 208.728806,576.741089 
	C208.092041,554.724060 214.140991,535.002258 228.791138,517.822632 
z"/>
<!-- Isotipo - detalle curva (verde propio) -->
<path fill="#20B29C" opacity="1.000000" stroke="none" 
	d="
M251.731430,561.940796 
	C251.743500,552.285522 252.007294,543.109985 251.663681,533.957275 
	C251.482956,529.144043 253.388077,527.897278 257.777344,528.046936 
	C267.931244,528.393066 278.094910,528.504822 288.255646,528.591125 
	C313.574341,528.806152 329.748505,511.576477 329.698029,488.967560 
	C329.695862,487.991913 329.616882,486.711517 330.162354,486.088684 
	C333.947968,481.766327 337.889496,477.580566 341.945892,473.171814 
	C345.750763,476.603607 345.781982,480.987640 346.102386,484.916351 
	C348.757629,517.473083 324.193787,544.077820 291.444336,544.341492 
	C285.445129,544.389771 279.438293,544.536194 273.448120,544.301758 
	C269.566895,544.149841 268.168823,545.428894 268.252106,549.441467 
	C268.483795,560.602478 268.182129,571.774475 268.401855,582.936035 
	C268.484619,587.142090 266.915405,588.499756 262.868530,588.340454 
	C256.878296,588.104675 250.866119,588.127747 244.874207,588.343384 
	C241.100266,588.479309 239.720383,586.840698 239.938019,583.310059 
	C240.009644,582.148010 239.922668,580.977051 239.949219,579.811096 
	C240.087982,573.714050 238.515762,571.255554 247.406067,571.841125 
	C250.664276,572.055786 251.991638,570.637512 251.734619,567.427795 
	C251.602051,565.772400 251.723984,564.096619 251.731430,561.940796 
z"/>
</svg>
